<?xml version="1.0" encoding="iso-8859-1"?>
<!-- Generator: Adobe Illustrator 19.0.0, SVG Export Plug-In . SVG Version: 6.00 Build 0)  -->
<svg version="1.1" id="Layer_1" xmlns="http://www.w3.org/2000/svg" xmlns:xlink="http://www.w3.org/1999/xlink" x="0px" y="0px"
	 viewBox="0 0 512.001 512.001" style="enable-background:new 0 0 512.001 512.001;" xml:space="preserve">
<path style="fill:#C3D2E1;" d="M506,273.358c0-6-86-56-120-56s-60,4-72-8s-33.333-44-40-40s0,49.333-8,56
	c-8,6.666-105.333,24-120,24s-13.005-8-24-8c-3.5,0-17.75,16-24,16c-2,0-12.25,0-16,0c-12,0-72-62.667-72-56c0,6.666,40,70,40,80
	s-13.333,48-8,48c5.334,0,31.334-48,48-48c20.667,0,24.333-1,16,16c-0.656,1.338,23.333-8,32-8s24,10.08,24,24c0,3.333,32-16,32-16
	s32.775,5.899,72.001,11.849l39.998,5.696c27.9,3.671,54.745,6.455,72.001,6.455c42,0,96-8,96-24l0,0
	C506,297.358,506,273.358,506,273.358z"/>
<path style="fill:#F0EBE1;" d="M47.435,273.397c1.564,3.592,2.565,6.443,2.565,7.961c0,10-13.333,48-8,48c5.334,0,31.334-48,48-48
	c20.667,0,24.333-1,16,16c-0.656,1.338,23.333-8,32-8s24,10.08,24,24c0,3.333,32-16,32-16s32.775,5.899,72.001,11.849l39.998,5.696
	c27.9,3.671,54.745,6.455,72.001,6.455c42,0,96-8,96-24c32,0,32-24,32-24c-3.731,13.342-40.305,31.888-160,16
	C284.212,281.157,211.635,274.189,47.435,273.397z"/>
<path style="fill:#B4C3D2;" d="M386,217.358c-34,0-60,4-72-8s-33.333-44-40-40s0,49.333-8,56c-8,6.666-105.333,24-120,24
	s-13.005-8-24-8c-3.5,0-17.75,16-24,16c-2,0-12.25,0-16,0c-12,0-72-62.667-72-56c0,5.324,25.466,46.73,35.74,68.309
	c1.025,2.082,1.694,3.73,1.694,3.73c80,0,234.764-28.059,274.565-32.039c80-8,112,32,184,32C506,267.358,420,217.358,386,217.358z"
	/>
<path style="fill:#DFDAD2;" d="M396.013,320.88c37.943-1.912,77.987-9.742,77.987-23.521c-16,0-40,0-56,8
	C413.572,307.572,405.42,313.517,396.013,320.88z"/>
<path style="fill:#B4C3D2;" d="M296,280.192c-24,24-56.667,64-56,64c22,0,88-56,112-56L296,280.192z"/>
<path d="M494.361,254.183c-9.419-6.063-21.477-12.937-33.951-19.354c-19.333-9.948-54.967-26.637-76.41-26.637
	c-7.319,0-14.129,0.179-20.715,0.352c-21.569,0.565-38.605,1.016-45.628-6.009c-3.572-3.572-8.218-9.281-13.138-15.326
	c-5.388-6.62-10.959-13.466-15.933-18.483c-3.685-3.718-12.314-12.418-20.703-7.394c-7.011,4.207-7.143,14.691-7.361,32.06
	c-0.086,6.86-0.262,20.81-1.932,24.738c-12.143,5.909-99.51,22.063-114.591,22.063c-5.266,0-6.776-1.095-9.278-2.908
	c-2.965-2.148-7.025-5.092-14.722-5.092c-4.426,0-7.861,2.903-14.097,8.175c-2.899,2.451-8.204,6.936-10.442,7.825H80.479
	C74.1,246.16,51.293,225.57,38.97,214.445c-6.41-5.787-12.465-11.254-17.1-15.148c-6.253-5.253-11.191-9.4-16.892-6.87
	C1.908,193.789,0,196.766,0,200.191c0,4.583,3.643,11.594,17.999,37.254c7.873,14.073,21.002,37.541,21.998,42.977
	c-0.108,3.292-2.395,12.295-4.241,19.562c-5.174,20.371-6.763,27.674-2.818,32.746c1.711,2.2,4.286,3.462,7.063,3.462
	c5.965,0,9.486-4.771,18.896-17.52c5.234-7.091,11.166-15.129,17.093-21.449c8.373-8.929,11.866-9.031,12.01-9.031l3.284-0.006
	c2.591-0.008,5.372-0.016,7.59,0.057c-0.484,1.126-1.147,2.572-2.057,4.428c-1.409,2.875-0.968,6.399,1.12,8.825
	c3.5,4.068,8.194,2.73,10.717,2.011c1.549-0.441,3.571-1.08,5.913-1.82c6.078-1.92,17.392-5.494,21.434-5.494c4.64,0,16,6.925,16,16
	c0,3.012,1.625,5.799,4.239,7.273c4.549,2.569,8.7,1.288,24.674-7.6c4.989-2.775,9.791-5.592,12.627-7.274
	c8.11,1.432,31.987,5.59,60.336,9.989c-0.334,0.39-0.677,0.791-0.99,1.157c-5.034,5.9-9.936,11.773-13.801,16.536
	c-1.683,2.073-3.087,3.837-4.063,5.101c-1.789,2.318-4.238,5.492-2.423,9.873c1.238,2.99,4.164,4.944,7.4,4.944
	c12.189,0,30.066-10.697,58.06-28.316c1.266-0.797,2.552-1.606,3.853-2.423c0.339,0.091,0.685,0.169,1.042,0.216
	c32.891,4.328,57.467,6.523,73.045,6.523c22.835,0,47.292-2.309,65.419-6.176c20.851-4.448,33.088-10.774,37.101-19.226
	c22.947-4.733,31.883-20.354,33.372-29.283c0.072-0.435,0.109-0.875,0.109-1.315C512,267.498,509.549,263.959,494.361,254.183z
	 M464,288.191c-4.36,0-9.807-1.427-15.572-2.938c-14.854-3.893-33.341-8.735-52.865,4.281c-3.676,2.45-4.67,7.418-2.219,11.094
	s7.418,4.669,11.094,2.219c13.546-9.03,26.365-5.672,39.935-2.116c2.584,0.678,5.114,1.338,7.61,1.9
	c-4.151,1.43-9.692,2.945-17.1,4.388c-16.874,3.287-38.336,5.172-58.883,5.172c-11.829,0-29.356-1.362-52.211-4.047
	c11.763-6.765,22.427-11.953,28.211-11.953h24c4.418,0,8-3.582,8-8s-3.582-8-8-8h-24c-14.569,0-37.833,14.642-62.462,30.143
	c-7.397,4.655-15.526,9.771-23.144,14.215c10.703-12.488,24-27.438,35.263-38.7c3.125-3.125,3.125-8.189,0-11.314
	c-3.124-3.123-8.189-3.123-11.313,0c-7.98,7.98-16.64,17.443-24.089,25.838c-0.342-0.1-0.691-0.187-1.053-0.241
	c-38.657-5.863-71.457-11.754-71.784-11.813c-1.913-0.346-3.889,0.02-5.554,1.025c-7.384,4.462-16.026,9.368-21.942,12.419
	c-5.296-12.96-19.604-21.571-29.92-21.571c-4.792,0-11.748,1.791-19.836,4.243c-0.023-2.116-0.544-4.12-1.738-6.028
	c-3.924-6.274-11.177-6.243-23.187-6.221L88,272.191c-11.833,0-23.142,12.129-36.065,29.077C54.48,291.178,56,284.561,56,280.191
	c0-6.489-5.995-18.305-24.002-50.494C60.688,255.49,71.956,264.191,80,264.191h16c6.05,0,11.939-4.596,20.232-11.605
	c1.623-1.372,3.906-3.303,5.287-4.306c1.386,0.198,2.159,0.76,3.813,1.958c4.329,3.137,9.013,5.953,18.668,5.953
	c8.733,0,38.804-4.85,63.995-9.641c53.993-10.269,59.176-14.588,61.126-16.213c6.672-5.561,7.159-17.586,7.4-36.746
	c0.053-4.188,0.122-9.646,0.408-13.932c4.651,4.71,10.917,12.408,15.18,17.647c5.185,6.371,10.083,12.389,14.234,16.541
	c11.884,11.884,31.951,11.355,57.362,10.689c6.482-0.171,13.186-0.347,20.294-0.347c12.478,0,36.167,8.304,64.994,22.781
	c22.881,11.491,39.835,22.283,45.959,27.084C492.462,279.188,485.086,288.191,464,288.191z"/>
<path d="M416,256.187c-2.1,0-4.17,0.859-5.66,2.35s-2.34,3.55-2.34,5.65c0,2.109,0.85,4.17,2.34,5.66
	c1.49,1.489,3.55,2.34,5.66,2.34c2.11,0,4.17-0.851,5.66-2.34c1.49-1.49,2.34-3.551,2.34-5.66c0-2.101-0.85-4.16-2.34-5.65
	C420.17,257.046,418.1,256.187,416,256.187z"/>
<g>
</g>
<g>
</g>
<g>
</g>
<g>
</g>
<g>
</g>
<g>
</g>
<g>
</g>
<g>
</g>
<g>
</g>
<g>
</g>
<g>
</g>
<g>
</g>
<g>
</g>
<g>
</g>
<g>
</g>
</svg>
